<svg xmlns="http://www.w3.org/2000/svg" width="139" height="166" viewBox="0 0 139 166" fill="none">
  <path d="M124.288 6.95254C126.134 5.23505 130.527 0.0917159 132.388 0C134.398 0.949142 130.848 4.72395 129.964 5.7743C131.556 4.92481 135.039 2.464 136.567 2.88877C137.002 3.33814 136.879 3.11003 136.97 3.81549C136.535 5.21009 133.359 6.90486 132.075 8.13384C133.361 7.65614 136.935 6.11651 138.075 7.22922C138.263 9.27256 133.376 10.5416 131.779 10.9517C133.356 11.2037 137.073 11.1183 136.914 13.1199C136.061 13.9574 132.938 13.9247 131.633 14.1564C131.301 14.2151 130.973 14.2896 130.649 14.3797C128.936 14.8505 128.59 15.5662 127.033 16.32C125.984 16.8802 124.231 17.0537 123.265 17.6482C121.717 18.6005 120.342 20.0329 118.957 21.2151C114.103 25.3606 109.576 30.2948 103.69 32.9929C100.967 34.2408 98.3464 35.5948 95.7034 36.9657C95.5918 38.102 95.3376 39.061 95.0735 40.1687C94.7478 41.2969 94.555 41.698 94.0414 42.7384C92.6715 43.2146 91.791 43.2519 90.3844 43.5719C86.9399 44.3558 84.8335 45.2644 81.7807 47.0116C82.1613 48.6419 82.2199 50.4553 82.425 52.1248C83.2071 58.4904 82.8735 64.9098 83.2823 71.3191C83.3982 73.1351 83.9812 74.3671 84.2547 76.0228C84.4601 77.2646 84.3022 79.4702 84.3701 80.8206C84.3017 81.8602 84.514 83.4217 84.0499 84.1591C84.0056 84.36 83.9101 84.8589 83.85 85.0267C81.2431 83.5625 75.1716 81.4951 72.1211 80.3545L72.1812 80.0481C72.5904 79.9851 72.7537 80.0054 73.0404 79.7379L72.7832 79.5515C72.1401 79.5818 71.9254 79.6269 71.378 79.2395L71.2148 79.1872C70.6817 79.2879 70.8483 79.176 70.5684 79.5793L70.5901 79.987C69.8009 80.2001 68.9832 79.5694 68.1485 79.5275C65.3125 79.3852 61.9733 80.7015 59.5068 81.8948C56.8167 83.7713 54.9881 84.9243 53.0875 87.6322C52.7406 88.1264 50.9449 90.621 50.7042 90.8552L51.1055 91.1175C51.1571 91.5508 51.154 91.4 50.8683 91.8589C49.0522 90.2411 48.1444 83.8505 48.2523 81.5166C48.3993 78.337 48.7807 77.4992 48.0442 74.267C49.4338 70.6426 48.2676 67.7229 47.6832 63.9016C46.5631 65.4092 45.1627 67.895 43.9638 69.1807C42.7583 68.9215 41.7316 68.6833 40.5461 68.3476C40.1266 68.314 40.0998 68.3252 39.7884 68.0672C36.5187 66.9192 34.7462 65.7486 32.2972 63.3468L31.8567 62.9338C31.6942 62.6148 31.236 61.8151 31.3466 61.587C32.1144 60.0028 33.419 57.7831 34.2415 56.2787C35.5789 53.8328 37.5962 48.2226 39.2153 46.2812C40.201 45.0993 45.0433 41.8674 46.56 40.8156C39.2098 37.5038 41.5623 34.6764 38.1234 29.1912C37.5141 28.2192 34.4687 27.1018 33.359 24.9549C32.3156 22.9367 32.6702 21.1217 32.2313 20.0658C31.7723 20.0436 31.7143 20.0558 31.2952 19.889C29.8731 16.3345 33.3478 11.5827 36.1426 9.53873C35.0587 8.73466 34.8893 8.501 34.0618 7.46766C35.4637 7.09104 37.1014 6.6788 38.4291 6.07786C41.4497 4.68863 44.227 2.80403 47.6109 2.41813C49.1329 2.24454 53.8447 1.94227 54.6936 3.43528L54.5183 3.77555L54.1771 3.86312C51.9221 2.29644 46.4581 2.84825 44.0536 4.07595C40.851 5.71122 38.4066 6.93582 34.9528 7.98789L37.4659 9.2863C33.2242 12.5061 32.3855 13.8491 31.616 19.0966C32.1695 18.7704 32.5811 18.4747 33.2163 18.3757C33.5194 18.8408 32.9501 21.6581 33.3343 23.0126C34.0733 25.6183 35.7746 26.3934 37.8151 28.1586C37.4247 27.2739 37.1596 26.449 36.8448 25.5506C36.2418 23.8299 37.6495 23.9017 38.0076 21.7223C38.1484 20.8657 38.1388 18.6152 38.419 18.0838C39.4477 18.3583 39.7503 21.1879 45.1206 21.6674C44.7613 21.1268 44.4113 20.5803 44.0707 20.0279C43.7081 19.4364 43.3764 18.9498 43.5338 18.2924C44.0882 18.3458 44.8864 19.2319 45.6044 19.5674C48.1084 20.7369 50.001 20.5695 52.6127 20.4987C52.1686 19.8971 50.9717 18.5403 51.149 17.8333C52.0206 18.1006 53.2478 19.1639 54.1809 19.5791C54.7812 19.8461 58.5032 20.2735 58.6793 20.5822C59.597 22.191 60.573 23.7668 61.5399 25.3238C63.5842 22.1772 61.4258 21.0816 66.9556 22.28C67.8586 20.8301 67.0191 17.2711 67.0396 15.6575C67.4412 14.9312 67.1602 15.6568 67.922 15.3393C67.9607 11.7423 65.8713 8.37656 62.7597 6.62816C61.9122 6.15204 60.8823 6.11986 60.1228 5.47885C60.8105 4.90134 61.1421 5.04692 61.9456 5.23925C62.9106 6.0574 63.8414 6.4911 64.7467 7.15738C66.7512 8.71256 68.4454 11.7658 68.5315 14.3229C68.627 17.1618 67.8142 20.1954 67.6576 23.0274C67.5412 25.1306 68.0874 26.9963 66.6958 28.8979C65.9819 29.8736 64.1607 30.7296 64.0356 31.9499C65.0884 33.1208 70.8306 30.6172 72.3623 30.4182C74.6323 30.1234 77.0929 30.5446 79.3727 30.1495C82.063 29.4861 84.6131 28.1586 87.2875 27.4058C89.8806 26.6758 92.1423 26.8646 94.7943 26.1254C99.0424 24.9413 101.311 22.8491 104.927 20.5133C109.396 17.6269 115.292 14.9963 119.36 11.5352C119.646 10.6967 121.84 3.44114 122.021 3.18052C124.193 2.33652 124.253 5.69752 124.288 6.95254Z" fill="#EF8570"/>
  <path d="M124.288 6.95254C126.134 5.23505 130.527 0.0917159 132.388 0C134.398 0.949142 130.848 4.72395 129.964 5.7743C131.556 4.92481 135.039 2.464 136.567 2.88877C137.002 3.33814 136.879 3.11003 136.97 3.81549C136.535 5.21009 133.359 6.90486 132.075 8.13384C133.361 7.65614 136.935 6.11651 138.075 7.22922C138.263 9.27256 133.376 10.5416 131.779 10.9517C133.356 11.2037 137.073 11.1183 136.914 13.1199C136.061 13.9574 132.938 13.9247 131.633 14.1564C131.301 14.2151 130.973 14.2896 130.649 14.3797C128.936 14.8505 128.59 15.5662 127.033 16.32C125.984 16.8802 124.231 17.0537 123.265 17.6482C121.717 18.6005 120.342 20.0329 118.957 21.2151C114.103 25.3606 109.576 30.2948 103.69 32.9929C100.967 34.2408 98.3464 35.5948 95.7034 36.9657C95.5918 38.102 95.3376 39.061 95.0735 40.1687C94.7478 41.2969 94.555 41.698 94.0414 42.7384C92.6715 43.2146 91.791 43.2519 90.3844 43.5719C86.9399 44.3558 84.8335 45.2644 81.7807 47.0116C81.7449 46.9407 81.5938 46.3051 81.5631 46.1824L81.6101 46.059L81.9112 46.037C82.5798 45.5348 85.6256 38.6387 86.3481 37.127L86.5335 37.1349C86.6864 37.9319 83.2221 44.8387 82.5748 45.969C83.4825 45.4007 84.1507 45.0072 85.1023 44.5287C86.4495 43.8513 90.3049 43.2183 91.0334 42.1907L91.3832 42.1538L91.5169 42.4139C92.1139 42.6945 92.7569 42.3212 93.2843 42.0512C92.9307 40.6858 93.5576 36.9611 93.6101 35.2912C93.7188 31.8351 93.2373 30.2067 92.2499 27.0183C91.3037 27.2132 90.8613 27.3307 89.9558 27.663L89.7563 27.6709C87.2644 27.4597 82.7017 30.0383 80.2525 30.6582C76.436 31.6239 73.1101 30.1607 69.539 32.062C68.7949 32.4583 65.3597 32.9385 64.53 32.9366L64.4883 33.1478C64.9135 33.7679 65.3297 34.394 65.7368 35.0259C66.0286 40.9707 61.6656 45.3749 55.5114 43.7781C54.0448 43.3977 52.5496 41.2479 50.5466 42.2833L50.193 42.2614C49.7067 41.7242 47.8991 41.2978 47.0988 41.0577C45.2126 42.799 41.8929 44.5278 40.1268 46.2785C38.2222 48.1663 36.5933 53.0888 35.3076 55.5704C34.8258 56.5006 32.9412 59.91 32.668 60.684C32.2819 61.0541 32.1631 61.1332 32.0454 61.6756C32.1225 62.2243 32.2406 62.3127 32.6034 62.7052C34.7115 64.8903 40.7628 68.9468 43.7755 68.2288C44.7575 67.0171 45.6186 65.5701 46.6073 64.4102C47.8163 62.9922 46.7404 62.6758 46.9888 61.7288L47.1564 61.7323L46.9327 61.7844L47.243 61.8137C47.4962 62.1921 48.2261 63.2239 48.3604 63.5902C48.2993 64.1672 48.1962 64.2558 48.4082 64.7289C48.8825 66.578 48.774 68.6041 49.875 70.0876C49.5135 71.6422 49.1972 72.9917 48.7155 74.5226C49.6809 77.4674 48.9255 78.8572 48.9274 81.729C48.9286 83.6843 49.7583 89.2173 50.7042 90.8552L51.1055 91.1175C51.1571 91.5508 51.154 91.4 50.8683 91.8589C49.0522 90.2411 48.1444 83.8505 48.2523 81.5166C48.3993 78.337 48.7807 77.4992 48.0442 74.267C49.4338 70.6426 48.2676 67.7229 47.6832 63.9016C46.5631 65.4092 45.1627 67.895 43.9638 69.1807C42.7583 68.9215 41.7316 68.6833 40.5461 68.3476C40.1266 68.314 40.0998 68.3252 39.7884 68.0672C36.5187 66.9192 34.7462 65.7486 32.2972 63.3468L31.8567 62.9338C31.6942 62.6148 31.236 61.8151 31.3466 61.587C32.1144 60.0028 33.419 57.7831 34.2415 56.2787C35.5789 53.8328 37.5962 48.2226 39.2153 46.2812C40.201 45.0993 45.0433 41.8674 46.56 40.8156C39.2098 37.5038 41.5623 34.6764 38.1234 29.1912C37.5141 28.2192 34.4687 27.1018 33.359 24.9549C32.3156 22.9367 32.6702 21.1217 32.2313 20.0658C31.7723 20.0436 31.7143 20.0558 31.2952 19.889C29.8731 16.3345 33.3478 11.5827 36.1426 9.53873C35.0587 8.73466 34.8893 8.501 34.0618 7.46766C35.4637 7.09104 37.1014 6.6788 38.4291 6.07786C41.4497 4.68863 44.227 2.80403 47.6109 2.41813C49.1329 2.24454 53.8447 1.94227 54.6936 3.43528L54.5183 3.77555L54.1771 3.86312C51.9221 2.29644 46.4581 2.84825 44.0536 4.07595C40.851 5.71122 38.4066 6.93582 34.9528 7.98789L37.4659 9.2863C33.2242 12.5061 32.3855 13.8491 31.616 19.0966C32.1695 18.7704 32.5811 18.4747 33.2163 18.3757C33.5194 18.8408 32.9501 21.6581 33.3343 23.0126C34.0733 25.6183 35.7746 26.3934 37.8151 28.1586C37.4247 27.2739 37.1596 26.449 36.8448 25.5506C36.2418 23.8299 37.6495 23.9017 38.0076 21.7223C38.1484 20.8657 38.1388 18.6152 38.419 18.0838C39.4477 18.3583 39.7503 21.1879 45.1206 21.6674C44.7613 21.1268 44.4113 20.5803 44.0707 20.0279C43.7081 19.4364 43.3764 18.9498 43.5338 18.2924C44.0882 18.3458 44.8864 19.2319 45.6044 19.5674C48.1084 20.7369 50.001 20.5695 52.6127 20.4987C52.1686 19.8971 50.9717 18.5403 51.149 17.8333C52.0206 18.1006 53.2478 19.1639 54.1809 19.5791C54.7812 19.8461 58.5032 20.2735 58.6793 20.5822C59.597 22.191 60.573 23.7668 61.5399 25.3238C63.5842 22.1772 61.4258 21.0816 66.9556 22.28C67.8586 20.8301 67.0191 17.2711 67.0396 15.6575C67.4412 14.9312 67.1602 15.6568 67.922 15.3393C67.9607 11.7423 65.8713 8.37656 62.7597 6.62816C61.9122 6.15204 60.8823 6.11986 60.1228 5.47885C60.8105 4.90134 61.1421 5.04692 61.9456 5.23925C62.9106 6.0574 63.8414 6.4911 64.7467 7.15738C66.7512 8.71256 68.4454 11.7658 68.5315 14.3229C68.627 17.1618 67.8142 20.1954 67.6576 23.0274C67.5412 25.1306 68.0874 26.9963 66.6958 28.8979C65.9819 29.8736 64.1607 30.7296 64.0356 31.9499C65.0884 33.1208 70.8306 30.6172 72.3623 30.4182C74.6323 30.1234 77.0929 30.5446 79.3727 30.1495C82.063 29.4861 84.6131 28.1586 87.2875 27.4058C89.8806 26.6758 92.1423 26.8646 94.7943 26.1254C99.0424 24.9413 101.311 22.8491 104.927 20.5133C109.396 17.6269 115.292 14.9963 119.36 11.5352C119.646 10.6967 121.84 3.44114 122.021 3.18052C124.193 2.33652 124.253 5.69752 124.288 6.95254Z" fill="#131950"/>
  <path d="M37.3545 24.706C38.4042 23.1838 38.8005 21.5748 38.9872 19.7708C40.4198 21.2114 43.4589 22.8196 45.5246 22.262C45.9479 21.8716 45.8404 22.0783 45.9076 21.4741C45.7148 20.8067 45.0185 20.2237 44.5108 19.7131C47.7689 21.3106 49.0853 21.5645 52.8386 21.1813C53.3652 21.1274 53.4287 20.8086 53.7499 20.3144C54.4085 20.2963 57.1834 20.9059 58.1377 21.0517C59.3494 23.4956 60.2282 23.3988 60.9706 26.8159C62.3663 25.4437 62.5168 24.8279 63.4212 23.0917C64.7729 21.9022 65.7072 22.2832 66.8086 23.5336C67.7889 26.7936 66.4846 29.6332 63.0148 30.2902C61.9054 32.4277 66.9558 34.9454 64.1397 39.8996C63.2035 41.5234 61.6544 42.7032 59.8402 43.1744C57.2743 43.8512 55.3279 43.0862 53.1701 41.8341C55.5087 40.9567 62.622 36.412 61.6604 33.5469C61.4306 33.993 61.1913 34.4343 60.9428 34.8702C59.515 37.3449 55.8887 40.4212 53.0238 41.1059C50.1832 41.8114 47.4641 40.6523 45.055 39.2988C41.4858 37.2936 41.2994 34.7712 39.9536 31.3754C39.0084 28.9906 38.0066 27.3086 37.3545 24.706Z" fill="white"/>
  <path d="M54.5652 28.4351C54.7769 28.5877 54.7291 28.574 54.8477 28.8401C54.3092 30.209 52.3034 30.4329 51.0257 30.2413L50.7012 29.708C50.8771 29.209 52.3017 29.6035 52.9035 29.3863C53.5194 29.1639 54.0333 28.7914 54.5652 28.4351Z" fill="#343E70"/>
  <path d="M64.0319 23.6306C64.7468 23.6776 65.4809 23.6673 66.1105 23.9961C65.2232 24.1014 64.9113 24.0746 64.1469 24.5312C64.247 24.8704 64.4567 24.926 64.7975 25.175L64.7865 25.1642L64.7344 25.4412L64.6418 25.4875C64.3042 25.6594 64.2618 25.6717 63.9955 25.928C64.0207 26.07 64.0663 26.3852 64.1092 26.5055L63.7861 27.3139C63.0352 26.0115 63.5998 24.9504 64.0319 23.6306Z" fill="#343E70"/>
  <path d="M46.4738 32.4346L46.9897 32.6351L47.1062 32.9806C46.7155 33.7217 46.5681 33.7924 47.0809 34.4584C48.0009 34.7116 47.5635 34.2653 48.5823 34.1956L48.8848 34.5484C48.7245 34.6521 48.5605 34.7497 48.393 34.8411C46.5198 35.8502 45.725 34.2629 46.4738 32.4346Z" fill="#131950"/>
  <path d="M52.4888 35.8284C52.5654 35.8538 52.6702 35.9561 52.7424 36.0153C52.2452 37.0376 49.0503 38.0309 47.9505 37.7703C47.7772 37.4812 47.7539 37.4868 47.7608 37.1375C47.8749 37.169 47.9896 37.1984 48.1049 37.2256C49.616 37.5799 51.1998 36.6257 52.4888 35.8284Z" fill="#131950"/>
  <path d="M52.6937 24.3613C53.192 24.4185 53.3383 24.3457 53.6547 24.6367C52.3437 24.9834 51.4193 25.0523 50.1782 25.6069C50.0103 25.7011 49.6962 25.8357 49.5099 25.9218L49.3574 25.7932L49.5129 25.4589C50.8149 24.5533 51.1461 24.5789 52.6937 24.3613Z" fill="#131950"/>
  <path d="M44.6184 30.6646L44.947 30.7443L44.9021 31.0748C44.0469 32.1073 43.2215 32.336 41.9741 31.9573L41.5049 31.6451C41.6829 31.2762 42.9904 31.5407 43.4563 31.3567C43.858 31.198 44.2712 30.9028 44.6184 30.6646Z" fill="#131950"/>
  <path d="M42.1063 26.5986C42.3874 26.6535 42.6014 26.7515 42.8658 26.8563L42.9632 27.1199C42.721 27.2681 40.8101 27.6697 40.1484 27.8816C39.958 27.9992 39.9817 27.9601 39.7344 27.9904L39.7821 27.7031C40.6672 26.8921 40.9146 26.7992 42.1063 26.5986Z" fill="#343E70"/>
  <path d="M64.1098 26.5054C64.2907 27.3716 64.239 27.5052 63.7214 28.3056L63.5439 28.1994C63.5968 27.7839 63.6341 27.709 63.7867 27.3137L64.1098 26.5054Z" fill="#646E96"/>
  <path d="M120.03 11.7645C120.092 11.5159 122.622 3.57382 122.539 3.68151C124.185 3.88037 123.122 7.46199 124.093 8.37329L124.405 8.29494C124.405 8.1296 124.421 7.74605 124.457 7.54696C124.52 7.20028 125.109 6.91872 125.451 6.64204C127.608 4.89587 129.309 2.6196 131.41 0.821125C131.781 0.504268 131.906 0.565085 132.323 0.641635L132.431 0.995777C132.055 2.41013 129.481 5.4687 128.446 6.89386C130.452 6.28225 130.498 6.07897 132.357 5.13972C133.172 4.63479 135.225 3.22794 136.114 3.53659C136.316 4.6309 133.387 6.47258 132.518 6.86876C132.034 7.40365 131.025 7.62533 130.858 8.56647C132.021 9.25255 136.521 6.73521 137.543 7.47968L137.439 7.8426C136.109 9.17142 131.895 10.1306 131.562 11.2467C132.375 12.256 135.613 11.6566 136.415 12.5232C136.343 12.7626 136.378 12.8273 136.146 12.9473C134.916 13.5812 132.609 13.1764 131.247 13.461C129.405 13.8459 128.035 15.2181 126.351 15.9734C125.436 16.4488 123.934 16.2037 123.14 16.8295C117.824 21.019 113.083 25.9668 107.64 30.0282C105.667 31.5009 103.59 32.3301 101.425 33.3896L94.2895 36.9252C94.3724 32.9624 94.2628 31.1943 93.0693 27.3854C94.5704 26.8574 97.9999 25.759 99.2266 25.0422C101.02 23.9942 103.261 22.3314 105.068 21.1749C108.55 18.9476 117.271 14.4853 120.03 11.7645Z" fill="white"/>
  <path d="M132.357 5.13984C133.173 4.6349 135.226 3.22806 136.115 3.5367C136.317 4.63101 133.388 6.47269 132.519 6.86887C132.848 5.93106 134.067 5.69495 135.017 4.35204C134.495 4.30573 133.311 5.08735 132.357 5.13984Z" fill="#F8F5F8"/>
  <path d="M124.877 9.61694C125.081 9.78359 125.055 9.79344 125.199 10.0288C125.282 11.2647 124.897 11.9248 124.369 13.0165L124.253 13.0363C124.16 12.7683 124.783 10.4131 124.877 9.61694Z" fill="#343E70"/>
  <path d="M81.5628 46.1824C81.5934 46.3051 81.7446 46.9406 81.7804 47.0116C82.161 48.6419 82.2195 50.4552 82.4247 52.1248C83.2067 58.4903 82.8731 64.9098 83.282 71.319C83.3978 73.1351 83.9808 74.3671 84.2544 76.0227C84.4597 77.2645 84.3019 79.4702 84.3697 80.8206C84.3014 81.8601 84.5136 83.4216 84.0495 84.1591L83.8674 83.7144C83.839 81.5575 83.7273 77.9886 83.5211 75.8761C83.4572 75.4552 83.2845 74.9827 83.2057 74.5453C81.8317 66.9164 82.617 58.9133 81.6246 51.1992C81.4273 49.6656 81.2521 47.9881 81.2197 46.4934L81.5628 46.1824Z" fill="#050824"/>
  <path d="M50.546 42.2833C53.0738 45.0308 55.4802 46.2134 59.2922 45.7946C61.6835 45.5307 63.8718 44.3271 65.3753 42.4489C67.9709 39.164 66.8661 36.7893 66.4563 33.5283L66.6073 33.5448C67.0798 34.3864 67.6086 36.1318 67.9375 37.1135C66.7234 40.6026 66.7871 42.8929 62.9388 45.0438C58.8472 47.3305 52.6418 46.5507 50.1924 42.2615L50.546 42.2833Z" fill="#330D19"/>
  <path d="M76.1045 32.6699C78.8851 35.8478 80.8709 41.9303 81.6102 46.0591L81.5632 46.1825L81.2201 46.4936C80.0931 40.2076 78.7601 38.2116 76.1045 32.6699Z" fill="#330D19"/>
  <path d="M48.3598 63.5903C52.4617 67.2705 51.9711 67.6683 57.6276 69.8837L57.2081 70.2316C54.3922 68.7115 51.746 68.0078 49.5391 65.351C49.2909 65.0521 48.9718 64.5917 48.6376 64.444L48.4077 64.729C48.1956 64.256 48.2987 64.1673 48.3598 63.5903Z" fill="#330D19"/>
  <path d="M62.9175 78.4083C64.7946 77.9266 69.745 77.9624 71.2148 79.1872C70.6816 79.2879 70.8483 79.176 70.5684 79.5793C68.0011 78.5654 66.5074 78.2671 63.764 78.7475C62.9954 78.8822 62.6684 79.1469 61.9082 78.977C62.3275 78.7878 62.5394 78.6505 62.9175 78.4083Z" fill="#581C25"/>
  <path d="M32.6676 60.6841L32.8688 60.7073C32.9812 61.2523 33.7985 61.882 34.2426 62.291C33.5422 62.9901 33.6048 62.9355 32.603 62.7053C32.2401 62.3129 32.122 62.2244 32.0449 61.6758C32.1627 61.1334 32.2814 61.0542 32.6676 60.6841Z" fill="#EF8570"/>
  <path d="M91.0331 42.1908C90.8854 41.2173 91.1605 38.0455 91.6442 37.1538C91.7759 37.8346 91.4641 41.2094 91.5166 42.414L91.3829 42.1539L91.0331 42.1908Z" fill="#581C25"/>
  <path d="M32.8691 60.7073C33.5771 60.834 36.5812 63.3718 37.1034 64.0039C36.1524 63.5842 35.0791 62.9163 34.243 62.291C33.7989 61.882 32.9815 61.2523 32.8691 60.7073Z" fill="#330D19"/>
  <path d="M89.7559 27.671L89.9554 27.6631C90.5938 28.5443 91.5812 31.3532 91.3569 32.3393C91.1423 31.8805 89.8034 28.101 89.7559 27.671Z" fill="#330D19"/>
  <path d="M57.6275 69.8838C58.2285 69.9213 58.9881 69.8998 59.472 70.2191C58.9697 70.4785 57.8208 70.2857 57.208 70.2317L57.6275 69.8838Z" fill="#581C25"/>
  <path d="M58.4528 75.1983C57.032 75.1819 55.4564 75.1993 54.0581 75.0411L54.04 74.9206C55.628 74.6161 61.1389 74.4566 62.2967 75.4618L62.1695 75.5354C61.6634 75.958 60.1689 76.0638 59.4277 76.184L58.3991 76.3609L58.4528 75.1983Z" fill="#581C25"/>
  <path d="M58.4531 75.1983C59.8306 75.1506 60.8333 75.0803 62.1698 75.5353C61.6637 75.9579 60.1692 76.0638 59.4279 76.1839L58.3994 76.3609L58.4531 75.1983Z" fill="#EF8570"/>
  <path d="M41.9824 48.4058C44.2832 49.8319 47.065 57.8836 47.4842 60.5275C46.8758 59.9923 45.2455 54.0122 44.4299 52.6512C43.9097 51.7831 42.2665 49.2002 41.9824 48.4058Z" fill="#330D19"/>
  <path d="M58.2988 80.8738C55.3101 82.0462 52.5919 85.4475 50.4307 87.737C50.4484 87.3835 51.0535 86.524 51.2838 86.2244C53.1832 83.7533 57.7442 79.9144 60.8812 79.3777C60.229 79.9266 59.0831 80.4658 58.2988 80.8738Z" fill="#581C25"/>
  <path d="M73.8472 61.6074L74.0466 61.7759C74.0312 61.8656 74.0158 61.9551 74.0004 62.0448C72.2699 66.4581 70.3871 69.2287 66.4743 71.6388L66.3779 71.5858C66.5432 71.1476 67.7352 70.3843 68.1923 70.0428C71.1598 67.826 72.1325 64.7204 73.8472 61.6074Z" fill="#330D19"/>
  <path d="M62.2968 75.4619C63.4367 75.4244 65.107 75.8709 66.2637 76.1415L66.0556 76.6277C64.5947 76.4566 63.3074 76.4908 61.8449 76.5044C61.0223 76.4903 60.3619 76.4669 59.5413 76.3911L59.4277 76.1841C60.169 76.0639 61.6635 75.958 62.1696 75.5354L62.2968 75.4619Z" fill="#050824"/>
  <path d="M75.5418 72.3714L75.7969 72.3635L75.7539 72.5205C73.3913 73.9386 71.2139 73.8365 68.5111 73.9025C68.3058 73.7372 68.397 73.8327 68.292 73.557C68.7053 73.3654 69.1567 73.37 69.6132 73.39C71.977 73.4938 73.2999 73.0636 75.5418 72.3714Z" fill="#330D19"/>
  <path d="M66.2638 76.1414C67.5123 76.5376 72.4963 78.0402 73.378 78.5195C72.9571 78.6358 72.6581 78.5432 72.2234 78.4711C71.257 78.3862 68.7085 77.293 67.3298 76.986L66.0557 76.6275L66.2638 76.1414Z" fill="#581C25"/>
  <path d="M58.3999 76.361L59.4285 76.1841L59.5421 76.3912C60.3627 76.4669 61.023 76.4903 61.8456 76.5044C60.9457 76.6101 57.8393 76.9186 57.0791 76.9494C57.2657 76.6489 57.979 76.5025 58.3999 76.361Z" fill="#581C25"/>
  <path d="M70.5683 79.5794C70.8482 79.1761 70.6816 79.288 71.2147 79.1873L71.3779 79.2396C71.9253 79.6269 72.1399 79.5818 72.783 79.5515L73.0402 79.7379C72.7536 80.0054 72.5902 79.9851 72.1811 80.0481L72.121 80.3545C75.1715 81.4951 81.243 83.5625 83.8499 85.0267C83.91 84.8589 84.0055 84.36 84.0497 84.1592C84.5138 83.4217 84.3016 81.8602 84.3699 80.8207C84.5959 81.3307 84.6061 84.4552 84.656 85.2424C88.2969 86.57 90.4031 87.5262 92.4161 91.12C95.5338 92.3568 94.295 93.0118 96.7932 94.9284C98.0485 95.8913 99.6833 96.8007 100.99 97.6528C104.559 99.9812 107.473 101.565 111.65 102.528C113.203 102.887 115.104 103.659 116.656 102.813C119.419 101.215 122.751 98.3324 124.978 96.0938C127.419 93.6408 130.11 88.9572 134.35 90.7223C139.248 93.1152 137.909 98.9855 136.229 102.97C134.64 106.737 132.109 108.943 130.028 112.301C127.741 115.989 126.221 127.042 119.426 124.529C117.68 123.883 112.683 119.299 111.425 117.721L108.423 117.581C107.129 116.773 106.712 116.751 105.415 116.125C104.11 115.495 102.718 114.349 101.323 113.813C98.1407 112.592 95.1209 111.574 92.1401 109.855C89.4164 108.284 87.0641 106.249 84.4627 104.491C83.5466 103.872 82.8816 103.129 81.8321 102.722C81.1957 103.108 80.7622 108.507 80.6395 109.45C80.2701 112.108 79.8044 114.753 79.2438 117.378C78.9002 119.02 78.5528 120.729 78.1228 122.352C77.8321 123.448 76.9791 125.099 76.7528 126.13C76.1103 129.057 75.6779 131.956 74.874 134.862C74.3851 136.629 73.6918 138.31 73.1857 140.06C73.0476 140.537 73.5881 141.325 73.4458 141.966C72.9196 144.338 72.146 147.535 72.3264 149.962C72.7221 150.41 73.3401 150.597 73.5797 150.913C75.1159 152.941 77.4107 154.41 78.9246 156.345C80.2852 158.084 84.2921 157.562 84.484 161.255C85.7837 165.505 81.6592 165.596 78.6391 165.799C75.8127 165.989 71.1842 166.293 68.4938 165.148C64.9373 163.634 62.0161 162.953 58.2049 162.418C56.9337 162.24 56.393 160.929 56.5684 159.791C56.8861 156.513 57.5766 153.272 58.1221 150.026C58.3008 148.964 57.9159 146.184 58.9392 145.605C59.9416 146.187 58.5208 148.09 59.3646 149.263C60.2477 149.785 61.3174 149.658 62.3612 149.647L63.1384 149.686C65.7334 149.728 67.1355 148.216 69.579 148.474C70.2282 148.543 70.8227 148.846 71.5189 148.839C71.8122 148.341 71.7502 147.79 71.7528 147.202L71.7707 146.658C72.2969 145.014 72.0537 145.616 72.033 143.919C72.031 143.75 72.796 142.412 72.8144 141.982C72.8466 141.237 72.3799 140.287 72.5896 139.668C73.2205 137.807 73.7944 136.028 74.3397 134.134C75.0622 131.626 75.3791 129.134 75.9645 126.623C76.3375 125.022 77.1807 123.222 77.6033 121.543C79.1944 115.016 80.2627 108.373 80.7978 101.676C79.7065 101.486 79.3032 101.425 78.2566 100.998C75.0129 101.194 72.1842 100.985 68.971 100.656C68.7984 100.563 68.6004 100.577 68.388 100.561C66.952 100.692 63.8378 99.896 62.1848 99.6278C62.862 102.139 63.1908 104.781 63.8325 107.127C63.9542 107.195 64.458 107.502 64.4644 107.563C64.6648 109.504 63.2567 111.675 64.3709 113.55C64.4501 113.684 64.5097 113.642 64.75 113.69C65.1872 113.335 65.3375 113.174 65.7074 112.762L65.8047 113.038C65.6067 113.909 64.4978 114.755 64.0089 115.648C63.1469 117.222 63.5941 118.265 64.0422 119.862C64.5596 120.122 64.6402 119.72 65.5441 119.504L65.6212 119.75C64.9583 120.192 64.2003 120.483 63.5925 120.951C62.4672 121.816 63.9568 122.457 63.6999 123.079C63.2131 124.259 62.5828 124.936 62.2345 126.255C60.9476 131.133 60.704 136.145 60.4895 141.157C58.2416 142.278 58.906 144.611 60.8572 145.762L60.9657 145.825L60.8703 146.099C60.2783 146.072 60.1158 145.869 59.6233 145.521C57.4428 143.98 58.6203 141.946 59.7748 140.395C60.0378 136.883 60.1838 133.363 60.7553 129.887C61.1821 127.29 62.1491 124.85 62.4423 122.241C62.5654 121.147 62.7976 120.9 63.3968 119.994C62.6613 117.229 62.3929 116.944 64.0108 114.554C63.0448 112.134 63.5841 110.529 63.2677 108.074C62.9045 105.256 61.8575 102.234 61.5558 99.4284C58.585 98.2842 55.4231 97.2445 53.2089 94.8349C52.353 93.9034 51.775 92.7444 50.8682 91.859C51.1539 91.4 51.157 91.5508 51.1054 91.1175L50.7041 90.8552C50.9448 90.6211 52.7405 88.1265 53.0874 87.6322C54.988 84.9243 56.8166 83.7713 59.5066 81.8948C61.9732 80.7016 65.3124 79.3852 68.1484 79.5276C68.9831 79.5694 69.8007 80.2001 70.59 79.987L70.5683 79.5794ZM68.8049 80.7467C67.6626 80.6358 68.1935 79.9998 66.0123 80.3339C67.4598 81.7959 67.1892 81.2302 68.8049 80.7467Z" fill="#131950"/>
  <path d="M66.0117 80.3338C68.1929 79.9997 67.662 80.6358 68.8043 80.7466C67.1886 81.2302 67.4592 81.7958 66.0117 80.3338Z" fill="#F8F5F8" fill-opacity="0.988235"/>
  <path d="M53.2979 88.6833C53.7743 87.244 58.9819 82.4088 60.4163 82.43L60.4619 82.946C61.375 82.6747 62.4238 81.4646 63.1287 81.0501C63.4814 80.8427 65.5158 80.4395 66.0124 80.334C67.4599 81.796 67.1893 81.2303 68.805 80.7468C70.2148 80.4973 70.6586 80.5082 71.9911 81.0284L72.1211 80.3546C75.1716 81.4952 81.2431 83.5626 83.85 85.0268L84.0301 85.2153L83.8115 85.5569C85.1543 86.3399 86.6814 86.7834 88.0679 87.3729C89.4628 87.9661 91.2164 90.5554 92.0516 91.7683C93.1445 92.1352 94.3892 92.3433 94.3648 93.7221L94.077 94.2954L94.6481 94.4028C95.4221 94.4532 96.6064 95.6463 97.3271 96.1188C99.5863 97.6002 101.863 99.0548 104.173 100.456C104.908 100.904 106.492 101.274 107.046 101.799C106.917 102.183 106.71 102.201 106.291 102.46C106.756 103.025 107.66 102.376 108.262 102.414C109.401 102.487 110.426 102.844 111.584 102.957C110.547 104.16 108.554 106.744 108.145 108.207L108.196 108.505C108.879 108.264 109.852 105.738 110.429 105.049C111.014 104.348 111.489 103.954 112.246 103.446C112.941 103.468 113.757 103.428 114.365 103.729L114.39 103.97C112.407 105.491 111.665 105.585 110.634 108.245C110.42 108.795 110.029 109.744 109.759 110.275C109.355 111.071 108.867 110.555 108.524 111.374C108.899 111.325 109.143 111.257 109.503 111.374C109.53 111.521 109.555 116.609 109.531 116.692C108.116 117.954 106.411 114.244 106.53 113.165C106.531 113.155 106.32 112.001 106.305 111.962C105.681 112.695 106.558 115.335 106.849 116.268C105.593 115.71 104.716 115.412 103.901 114.203C103.453 113.538 103.286 112.256 102.805 112.315C102.856 112.783 102.879 113.018 102.866 113.497C101.939 113.687 94.7123 110.415 93.5516 109.838C90.3231 108.231 87.5699 105.429 84.3556 103.8C84.0036 103.622 83.4861 101.886 82.943 101.685C82.3486 102.039 82.5292 102.048 81.9262 102.006C80.3048 100.878 80.2402 98.71 80.3091 96.8938C80.3446 95.9586 81.1419 94.9626 81.0534 94.3943C79.3009 94.2156 79.8441 99.9792 80.1444 101.092L77.2708 99.772C77.0369 99.8797 77.0242 99.8594 76.8901 100.073C74.4469 100.848 65.0627 99.7967 62.2911 98.5799L61.7382 98.5279C61.0155 98.3274 60.2915 98.1322 59.566 97.9423C60.1784 97.4715 60.166 96.5614 60.2333 95.8425L59.8941 95.6685C59.7293 93.9173 59.0609 93.6397 57.5335 93.1064L57.8244 92.3605C56.1435 90.9984 54.9614 90.1566 53.2979 88.6833Z" fill="white"/>
  <path d="M72.1212 80.3545C75.1717 81.4951 81.2432 83.5625 83.8501 85.0267L84.0301 85.2152L83.8115 85.5567C80.4448 84.3173 75.2822 81.9287 71.9912 81.0282L72.1212 80.3545Z" fill="#050824"/>
  <path d="M57.8241 92.3604C58.7242 92.8506 59.4431 93.215 60.2614 93.8433C60.6741 95.8426 61.2812 96.796 62.2908 98.5797L61.7379 98.5278C61.0152 98.3272 60.2912 98.132 59.5657 97.9421C60.1781 97.4713 60.1657 96.5612 60.233 95.8424L59.8938 95.6684C59.729 93.9172 59.0606 93.6395 57.5332 93.1062L57.8241 92.3604Z" fill="#4E537E"/>
  <path d="M60.2328 95.8425C60.4113 97.4789 61.5664 97.5753 61.7377 98.5279C61.015 98.3274 60.291 98.1322 59.5654 97.9423C60.1779 97.4715 60.1655 96.5614 60.2328 95.8425Z" fill="#F8F5F8"/>
  <path d="M94.0769 94.2952L94.6481 94.4026C93.0427 94.6145 92.1439 95.6957 91.1211 95.6599C92.2357 94.7448 92.722 94.63 94.0769 94.2952Z" fill="#4E537E"/>
  <path d="M91.4222 102.956L90.9442 102.573C90.7819 101.811 90.498 101.689 90.2656 100.912L90.5163 100.842C91.4599 101.193 92.3032 101.84 93.1381 102.414C93.6594 102.6 93.9109 102.79 94.3631 103.089C95.1719 103.599 97.1555 104.671 97.6995 105.178C97.4378 105.444 97.0076 105.843 96.8291 106.147C95.487 105.531 93.7898 104.593 92.6129 103.71C92.3187 103.614 91.7178 103.16 91.4222 102.956Z" fill="#B0AEC8"/>
  <path d="M91.4222 102.956L90.9442 102.573C90.7819 101.811 90.498 101.689 90.2656 100.912L90.5163 100.842C91.4599 101.193 92.3032 101.84 93.1381 102.414C92.512 102.497 92.28 102.391 91.7045 102.174L91.463 102.302L91.4222 102.956Z" fill="#9293B6"/>
  <path d="M75.2224 93.467C74.0817 93.2058 72.5433 93.2418 72.3975 91.7512C73.0151 90.9864 73.8935 91.3541 74.7072 91.7747C75.4762 91.9628 77.8658 92.456 78.3141 92.9641C77.9631 93.8713 75.9249 93.8247 75.2224 93.467Z" fill="#F8F5F8"/>
  <path d="M74.708 91.7747C75.477 91.9628 77.8666 92.456 78.3148 92.9641C77.9639 93.8713 75.9257 93.8247 75.2232 93.467C75.7617 93.0786 76.0302 93.3356 76.5521 92.9376C76.2141 92.5677 75.3342 92.3217 74.8261 92.1516L74.708 91.7747Z" fill="#4E537E"/>
  <path d="M84.3586 96.3616C86.6304 97.3925 86.1343 98.5433 87.174 99.1303L87.457 98.7562L87.7023 98.759C89.4188 99.8677 89.1123 99.8033 89.9967 101.82L89.8089 101.937L89.5082 101.633C89.2211 101.457 88.93 101.259 88.6475 101.074C88.5959 100.755 88.6446 100.677 88.7386 100.355L88.7704 100.249C88.3376 99.9207 88.5241 99.9794 88.0459 99.936L87.6947 100.267C86.4166 99.8909 85.403 97.5629 84.9957 97.4059L84.3678 97.9213L84.1435 97.7544C84.0941 97.2252 84.2251 96.8745 84.3586 96.3616Z" fill="#646E96"/>
  <path d="M108.164 103.976L108.356 104.266C107.57 105.336 106.403 106.97 106.088 108.218C105.676 109.848 106.259 109.939 105.224 111.505L105.121 111.254L105.075 110.727C104.796 110.47 104.534 110.251 104.24 110.01C104.433 109.557 104.566 109.587 105.043 109.287C105.986 107.075 106.635 105.815 108.164 103.976Z" fill="#4E537E"/>
  <path d="M81.9648 94.4719C84.9778 95.0722 83.2101 96.9091 82.8083 98.7322C82.7028 99.2113 82.7854 99.9678 82.8354 100.468L82.839 100.751C81.6056 99.905 82.4236 97.7491 82.8546 96.6095C82.1415 95.639 81.9793 95.5895 81.9648 94.4719Z" fill="#4E537E"/>
  <path d="M65.4284 82.9624L65.6387 83.076C65.6269 83.1895 61.2936 88.6413 60.8249 89.246C60.5131 88.9814 60.4808 88.9214 60.2754 88.5659C62.1391 86.8228 63.566 84.7559 65.4284 82.9624Z" fill="#343E70"/>
  <path d="M62.967 82.834L63.067 83.0607C61.9805 84.3476 59.921 85.1847 58.9458 87.2106C59.1107 87.882 59.1261 87.4919 59.7643 88.0942L59.6029 88.3338C59.0238 87.8971 58.2965 87.6269 57.625 87.3396C59.4757 85.7882 60.8913 84.0154 62.967 82.834Z" fill="#343E70"/>
  <path d="M98.7027 105.578C99.5205 106.292 101.053 106.79 102.08 107.337C101.953 107.973 101.467 108.062 100.884 108.129L100.56 107.961C100.94 107.321 101.111 107.654 101.096 107.086C100.699 106.92 98.8793 106.508 98.4906 106.639C97.7652 106.883 98.1325 106.88 97.3281 106.655C98.0077 106.292 98.2608 106.199 98.7027 105.578Z" fill="#646E96"/>
  <path d="M66.7195 89.7048C67.2951 89.8184 67.7379 89.7925 68.0816 90.146L67.4277 90.6859C67.5568 90.9573 67.6819 91.1935 67.825 91.4579C67.3144 91.4539 66.0858 90.9377 65.4424 90.7442C66.0332 90.38 66.2187 90.1892 66.7195 89.7048Z" fill="#646E96"/>
  <path d="M91.3458 92.528L91.6363 92.5161L91.7902 92.6628C89.438 93.5932 88.9689 93.4345 86.6939 94.9064L86.4453 94.9088C86.8483 93.6791 90.0878 92.7225 91.3458 92.528Z" fill="#4E537E"/>
  <path d="M82.296 89.0061C82.4729 89.0789 82.3922 89.0214 82.4945 89.2381C81.4451 90.1601 80.4293 90.7048 79.1949 91.8479L78.9727 91.7665L79.021 91.4744C79.9036 90.492 81.1717 89.6842 82.296 89.0061Z" fill="#4E537E"/>
  <path d="M102.727 107.552C103.22 107.829 103.176 107.71 103.416 108.132C103.192 108.509 103.117 108.678 103.063 109.114L103.029 109.281L102.671 109.086C102.395 108.312 102.501 108.48 102.727 107.552Z" fill="#646E96"/>
  <path d="M53.2976 88.6831C54.9611 90.1564 56.1432 90.9982 57.8241 92.3603L57.5332 93.1062C59.0606 93.6395 59.729 93.9172 59.8938 95.6684L60.2331 95.8424C60.1658 96.5612 60.1781 97.4713 59.5657 97.9421C55.5591 96.469 53.5802 94.6605 51.4717 91.097C51.8409 90.445 52.1205 90.1485 52.6138 89.581C52.9443 89.3966 53.097 89.0272 53.2976 88.6831Z" fill="white"/>
  <path d="M53.298 88.6831C54.9616 90.1564 56.1436 90.9982 57.8246 92.3603L57.5337 93.1062L56.8611 92.9501C56.376 92.4325 56.6339 92.2841 55.9928 91.9889L55.4966 92.2781C54.9078 92.1132 53.6199 90.3181 52.742 89.6733L52.6143 89.581C52.9448 89.3966 53.0975 89.0272 53.298 88.6831Z" fill="#9293B6"/>
  <path d="M57.4453 158.511C57.5097 157.66 58.4532 150.77 58.6916 150.357C59.0219 150.621 59.1264 152.19 59.2054 152.744C59.4936 153.186 59.5495 153.218 60.0369 153.427C62.5112 153.496 63.1753 149.863 66.2978 151.25C68.1708 152.226 69.0847 151.085 70.1816 152.15C71.0578 151.613 71.7535 151.079 72.7865 151.099L72.9385 151.273C72.3839 152.392 69.2864 153.684 68.0772 154.094C67.9642 154.132 67.851 154.169 67.7372 154.205L67.0934 153.81C66.7333 154.108 66.8352 153.944 66.7441 154.459C67.5184 155.341 67.9828 154.33 69.2796 154.609C68.9311 155.091 68.622 155.406 68.6357 155.994C69.1434 156.748 69.8375 156.222 70.6352 156.219L70.6606 156.516C70.4575 157.128 70.3936 157.029 70.5093 157.594C71.8759 158.371 73.9111 156.837 75.1844 156.474C77.1289 155.993 79.4914 157.729 81.2981 158.384C82.2523 158.73 83.342 159.712 83.6661 160.674C83.4458 163.102 72.7669 162.527 70.584 162.305C71.494 159.828 72.0975 160.102 73.1737 158.116L73.0752 158.045C71.2986 159.372 70.8209 160.144 70.0729 162.143C69.2615 161.906 68.3416 161.649 67.5576 161.353C64.2436 160.102 60.806 159.572 57.4453 158.511Z" fill="white"/>
  <path d="M70.1819 152.15C71.0581 151.613 71.7539 151.079 72.7869 151.099L72.9389 151.273C72.3843 152.392 69.2868 153.684 68.0775 154.094C67.9646 154.132 67.8513 154.169 67.7375 154.204L67.0937 153.81L67.4328 153.449C66.6756 152.846 65.6479 154.044 64.7402 153.152C64.7845 152.364 65.7128 151.888 66.2351 151.32L66.2981 151.25C68.1711 152.226 69.085 151.085 70.1819 152.15Z" fill="#B0AEC8"/>
  <path d="M70.1819 152.15C71.0581 151.613 71.7539 151.079 72.7869 151.099L72.9389 151.273C72.3843 152.392 69.2868 153.684 68.0775 154.094C67.9646 154.132 67.8513 154.169 67.7375 154.204L67.0938 153.81L67.4329 153.449C68.3283 153.553 69.5288 152.697 70.1819 152.15Z" fill="#F8F5F8"/>
  <path d="M115.133 107.825C115.417 108.307 115.531 108.56 115.976 108.919L116.463 108.59C117.298 107.235 115.73 106.559 116.651 105.891L117.55 106.142C118.908 105.477 117.628 103.944 118.833 103.672C120.175 105.094 119.78 102.622 120.805 101.863C122.247 102.365 122.177 100.228 122.864 99.3068C123.451 98.5208 124.187 97.8236 124.879 97.137C122.337 103.745 122.015 110.644 118.084 116.764C117.369 117.877 116.679 120.177 116.273 121.496C114.896 120.16 113.435 118.483 112.125 117.051C115.253 113.201 112.405 110.624 113.969 107.538C114.739 107.551 114.556 107.441 115.133 107.825Z" fill="white"/>
  <path d="M116.771 121.869C117.604 117.578 119.876 115.019 121.37 111.07C123.699 104.913 123.813 96.5714 129.544 92.1672C130.681 91.2934 132.112 91.0128 133.516 91.2607L133.523 92.0763C132.212 93.2883 130.004 94.6536 129.338 96.2615C127.359 101.035 125.968 106.016 124.262 110.88C123.088 114.226 121.185 117.419 120.014 120.774C119.783 121.44 119.665 123.311 119.605 124.079C118.563 123.321 117.743 122.711 116.771 121.869Z" fill="white"/>
  <path d="M57.1248 159.327C59.8357 160.076 62.7775 160.246 65.5085 161.299C70.6779 163.292 76.109 163.768 81.5099 162.457C81.9146 162.359 83.5047 161.943 83.7775 162.058C84.1013 162.548 84.0207 163.299 84.0178 163.909C80.8248 165.541 74.1909 165.438 70.6875 165.003C68.5671 164.741 65.8488 163.215 63.6725 162.661C62.0833 162.257 58.5171 162.182 57.4138 161.173C57.0444 160.66 57.1243 159.976 57.1248 159.327Z" fill="#F8F5F8"/>
  <path d="M135.586 102.831C134.995 104.093 134.894 104.492 133.426 104.059C132.522 103.793 131.009 103.461 130.082 103.613L130.003 103.82C131.008 104.436 133.906 103.922 134.366 104.993L134.137 105.337C132.798 106.126 129.575 104.888 127.546 105.097L127.449 105.274C128.23 105.818 132.519 105.526 133.377 106.408L133.309 106.757C132.406 107.454 127.385 106.936 126.596 106.178C126.468 105.186 127.258 103.206 127.728 102.284C127.931 101.886 128.188 101.933 128.644 101.846C130.171 102.742 134.778 102.518 135.586 102.831Z" fill="white"/>
  <path d="M121.515 118.622C121.554 118.552 121.75 118.214 121.781 118.196C122.59 117.716 126.372 116.901 127.104 117.443L126.981 118.06L126.774 118.472C126.213 119.62 124.89 122.531 123.62 123.06C123.482 123.117 122.983 123.015 122.812 122.978L122.611 123.141L122.907 123.632C122.502 124.29 121.208 124.365 120.548 124.094L120.384 123.824C120.68 123.36 121.261 123.254 121.846 123.064L120.513 122.877L120.354 122.637C120.39 122.467 120.462 122.086 120.511 121.939L120.52 121.501C120.502 121.013 120.609 120.889 120.854 120.474C120.965 120.21 120.944 120.131 120.97 119.843L121.55 119.077L121.515 118.622Z" fill="white"/>
  <path d="M121.516 118.622C121.554 118.552 121.75 118.214 121.781 118.196C122.59 117.716 126.372 116.901 127.104 117.443L126.981 118.06L126.774 118.472C125.245 118.621 122.823 119.379 121.55 119.077L121.516 118.622Z" fill="#F8F5F8"/>
  <path d="M126.981 118.06L126.774 118.472C125.245 118.621 122.823 119.379 121.55 119.077L121.516 118.622C122.709 119.038 125.238 118.126 126.981 118.06Z" fill="#343E70"/>
  <path d="M120.854 120.474C120.965 120.21 120.945 120.131 120.97 119.843C122.216 120.723 124.682 119.72 125.44 120.108C124.832 120.725 121.733 120.641 120.854 120.474Z" fill="#4E537E"/>
  <path d="M120.521 121.501C121.723 121.574 122.987 121.539 124.121 121.809C122.839 121.907 121.798 121.935 120.511 121.94L120.521 121.501Z" fill="#9293B6"/>
  <path d="M136.118 101.362C134.969 100.803 134.941 100.826 133.733 100.496C132.496 100.16 129.253 100.544 128.699 99.8273C128.841 99.1091 128.718 99.2258 129.149 98.7141C132.31 98.2713 133.86 99.2529 136.913 99.1792C136.622 99.8299 136.338 100.451 136.087 101.121C135.933 101.53 135.949 102.082 135.828 102.334L135.587 102.831C134.778 102.518 130.171 102.742 128.644 101.846L128.769 101.755C128.143 101.564 128.197 101.69 127.894 101.248C127.947 101.017 127.943 100.788 128.141 100.717C130.147 99.9934 134.256 101.129 136.118 101.362Z" fill="white"/>
  <path d="M128.77 101.755C130.715 101.797 133.424 102.27 135.829 102.334L135.587 102.831C134.779 102.518 130.171 102.742 128.645 101.846L128.77 101.755Z" fill="#4E537E"/>
  <path d="M125.22 109.98C126.8 110.397 129.203 109.93 130.175 110.461L130.208 110.804L129.806 111.276L129.596 111.792C129.155 112.481 128.578 113.783 128.328 114.124L128.249 114.587C128.104 114.828 127.855 115.201 127.576 115.244C126.635 115.387 123.803 116.155 123.091 115.782C123.47 114.992 123.953 113.997 124.132 113.143C124.21 112.949 124.381 112.638 124.482 112.441C124.759 111.754 125.015 110.715 125.22 109.98Z" fill="#F8F5F8"/>
  <path d="M124.133 113.142C124.21 112.949 124.382 112.638 124.483 112.441C124.952 112.673 127.271 112.638 128.216 112.839C127.203 112.941 125.142 113.133 124.133 113.142Z" fill="#4E537E"/>
  <path d="M129.596 111.792C128.842 111.582 126.789 111.627 125.533 111.401C126.692 111.199 128.623 111.223 129.806 111.276L129.596 111.792Z" fill="#343E70"/>
  <path d="M128.25 114.587C127.716 114.229 125.688 114.438 124.703 114.301L124.636 114.121C125.418 113.849 127.478 113.997 128.329 114.124L128.25 114.587Z" fill="#4E537E"/>
  <path d="M114.072 104.875C114.428 105.261 114.143 105.707 113.914 106.123C112.36 108.952 112.819 109.136 113.003 112.216C113.066 113.268 112.954 114.936 112.135 115.777C111.584 115.971 111.816 115.971 111.264 115.776C109.941 115.05 109.844 114.028 110.076 112.549C110.569 109.416 111.476 106.866 114.072 104.875Z" fill="white"/>
  <path d="M133.666 92.9978C134.382 93.0333 135.432 93.0417 136.032 93.3736C136.383 93.6934 137.047 96.1619 137.066 96.5728C136.17 97.618 131.609 96.6384 130.416 95.7801C130.509 95.6959 130.605 95.6155 130.704 95.5394C131.894 94.6102 135.063 95.5374 136.751 95.7498C134.748 94.8297 133.616 94.7564 131.475 94.4279C132.278 93.9597 132.907 93.5254 133.666 92.9978Z" fill="white"/>
  <path d="M125.84 108C126.012 107.515 126.094 107.054 126.502 106.802C127.95 106.854 129.986 107.638 131.638 107.454C131.89 107.426 132.156 107.623 132.333 107.802C132.19 108.325 132.268 108.137 131.79 108.584L131.64 109.051C131.467 109.264 131.246 109.498 131.06 109.704C130.098 110.167 126.801 109.851 125.618 109.685C125.428 109.288 125.56 109.133 125.665 108.614L125.84 108Z" fill="#F8F5F8"/>
  <path d="M125.665 108.614C127.115 109.09 129.525 108.629 131.64 109.051C131.467 109.264 131.246 109.498 131.06 109.704C130.098 110.167 126.801 109.851 125.618 109.684C125.428 109.287 125.56 109.133 125.665 108.614Z" fill="#F8F5F8"/>
  <path d="M125.841 107.999C126.554 108.651 130.602 108.366 131.791 108.583L131.641 109.051C129.526 108.629 127.116 109.09 125.666 108.613L125.841 107.999Z" fill="#646E96"/>
  <path d="M130.25 96.6555C132.034 97.0063 135.588 97.0332 136.665 97.6486C136.941 98.1401 136.909 97.9102 136.742 98.5201L136.342 98.7184C135.793 98.7267 135.244 98.7179 134.695 98.6919C133.842 98.6482 129.865 98.3206 129.42 97.8242C129.572 97.2069 129.749 97.1879 130.25 96.6555Z" fill="white"/>
  <path d="M67.9301 149.145C69.0092 149.029 71.7998 149.253 71.5767 150.754C71.2097 151.123 70.6165 151.141 70.086 151.221C68.0129 151.181 67.1066 151.388 65.5928 149.996L67.9301 149.145Z" fill="#F8F5F8"/>
  <path d="M73.8976 152.692L74.0722 152.638L74.3063 152.814C73.8993 153.579 72.0562 153.976 71.2453 154.215C71.7958 154.943 74.4163 153.879 75.509 154.045L75.636 154.247L75.3224 154.542C74.4092 155.183 73.821 155.32 72.7771 155.616C71.3179 155.226 70.895 155.087 69.7129 154.148C71.3005 152.679 71.7999 152.735 73.8976 152.692Z" fill="#F8F5F8"/>
  <path d="M69.28 154.609C72.7539 158.528 74.7681 153.654 77.6391 155.558L77.5735 155.762C76.7386 155.905 76.1637 155.78 75.4829 155.926C73.972 156.25 72.3482 157.732 70.8814 156.68C70.8072 156.626 70.7337 156.572 70.6611 156.516L70.6356 156.219C69.8379 156.222 69.1438 156.748 68.6362 155.994C68.6224 155.406 68.9316 155.091 69.28 154.609Z" fill="#B0AEC8"/>
  <path d="M59.7603 150.338C61.1217 150.302 62.545 150.336 63.9118 150.349C63.0289 150.93 62.7996 151.091 62.0626 151.859C61.3684 152.505 60.7733 153.217 59.9353 152.484C59.604 151.814 59.7188 151.09 59.7603 150.338Z" fill="#F8F5F8"/>
  <path d="M126.629 115.757C126.943 115.739 127.194 115.774 127.504 115.805L127.691 116.049L127.459 116.507C126.981 116.72 124.154 117.035 123.292 117.224L122.872 117.324L122.634 117.063L122.389 117.251L122.416 117.032C123.047 116.292 125.614 115.867 126.629 115.757Z" fill="white"/>
  <path d="M113.97 107.537L114.046 107.399C114.612 106.361 115.224 104.33 115.851 103.618L116.164 103.664C116.162 103.619 115.142 107.809 115.134 107.825C114.557 107.441 114.74 107.551 113.97 107.537Z" fill="#F8F5F8"/>
  <path d="M133.517 91.2607C134.169 91.4642 134.725 91.5708 135.197 92.059L135.211 92.3105C134.693 92.4936 134.072 92.2342 133.523 92.0763L133.517 91.2607Z" fill="#F8F5F8"/>
  <path d="M31.8561 62.9338L32.2966 63.3468C34.7456 65.7487 36.5182 66.9192 39.7878 68.0672C40.0992 68.3252 40.126 68.3141 40.5455 68.3476C39.412 69.1782 34.5174 76.303 32.7629 78.0356C29.7447 81.016 26.6215 83.8696 23.3653 86.7078C22.0614 87.8445 19.6559 89.936 18.6429 91.306C18.1571 91.9627 17.3825 94.2543 16.8115 95.1614C16.3407 95.9097 14.7128 97.6037 14.4974 98.148C13.807 99.8923 13.4947 102.074 12.3978 103.674C12.1045 104.101 11.8554 104.286 11.3266 104.362C9.47334 103.673 10.8666 99.64 11.1836 98.0434C10.312 99.2885 7.44141 105.458 5.75221 103.914C5.31325 102.369 7.14103 99.5286 7.84284 97.9064C6.32492 99.1743 4.38267 102.432 2.28704 102.092C0.704564 100.757 4.97758 96.7487 6.00818 95.6148C4.64398 96.2552 1.4835 98.4803 0.143047 97.7168C-0.531223 96.5706 1.35009 95.2126 2.20941 94.6097C3.9623 93.3796 5.48298 92.0528 7.07716 90.6383C5.56647 90.3484 1.50846 89.9387 2.80277 87.5238C2.99436 87.4009 12.1451 86.5533 12.917 86.656C18.1185 81.7898 21.388 75.4446 25.6715 69.9308C28.2104 66.6625 29.5274 67.2404 31.8561 62.9338Z" fill="white"/>
  <path d="M31.8561 62.9338L32.2966 63.3468C30.6251 67.1189 28.3164 67.5117 26.0192 70.4892C22.0652 75.6138 18.0461 83.1342 13.0781 87.2883C9.82761 87.3799 6.85614 87.9479 3.45983 88.096L3.24345 88.3576C3.7671 90.1904 7.56174 89.398 8.03615 90.6872C6.35401 92.5062 2.37896 95.0521 0.593535 96.809L0.667727 97.1579C1.81848 97.5321 4.42364 95.4425 5.91608 95.2306L6.25107 95.3695C6.47812 96.7091 2.47278 100.07 2.51375 101.284C4.0921 102.459 7.05634 96.3118 8.46564 97.078C8.86242 98.3945 5.89164 102.247 6.30856 103.505C7.7263 103.396 9.35199 98.9089 11.0491 98.0537L11.3467 98.1147C12.0844 99.4332 10.5043 102.231 11.1951 103.578L11.4781 103.643C12.3016 102.991 12.9889 100.173 13.5431 99.0606C14.9226 96.2915 17.0026 93.5159 18.2826 90.656C18.8174 89.4609 21.8221 87.4312 22.7215 86.3875C25.2353 84.109 27.825 81.8817 30.2983 79.5613C33.9254 76.1581 36.7781 72.0283 39.7878 68.0672C40.0992 68.3252 40.126 68.3141 40.5455 68.3476C39.412 69.1782 34.5174 76.303 32.7629 78.0356C29.7447 81.016 26.6215 83.8696 23.3653 86.7078C22.0614 87.8445 19.6559 89.936 18.6429 91.306C18.1571 91.9627 17.3825 94.2543 16.8115 95.1614C16.3407 95.9097 14.7128 97.6037 14.4974 98.148C13.807 99.8923 13.4947 102.074 12.3978 103.674C12.1045 104.101 11.8554 104.286 11.3266 104.362C9.47334 103.673 10.8666 99.64 11.1836 98.0434C10.312 99.2885 7.44141 105.458 5.75221 103.914C5.31325 102.369 7.14103 99.5286 7.84284 97.9064C6.32492 99.1743 4.38267 102.432 2.28704 102.092C0.704564 100.757 4.97758 96.7487 6.00818 95.6148C4.64398 96.2552 1.4835 98.4803 0.143047 97.7168C-0.531223 96.5706 1.35009 95.2126 2.20941 94.6097C3.9623 93.3796 5.48298 92.0528 7.07716 90.6383C5.56647 90.3484 1.50846 89.9387 2.80277 87.5238C2.99436 87.4009 12.1451 86.5533 12.917 86.656C18.1185 81.7898 21.388 75.4446 25.6715 69.9308C28.2104 66.6625 29.5274 67.2404 31.8561 62.9338Z" fill="#131950"/>
  <path d="M66.9528 118.07C69.367 118.72 67.7135 122.343 67.0358 123.754L67.3253 124.341C66.8197 125.882 66.225 127.606 65.8246 129.163C65.4693 130.546 65.543 133.853 64.8289 135.047L64.4626 134.547C64.6592 133.619 64.3356 133.211 64.2153 132.333C64.139 131.776 65.0961 131.287 65.1904 130.73C65.27 130.26 65.0453 129.958 64.9496 129.496C65.5177 127.487 66.0733 125.071 66.4961 123.073C66.791 122.835 66.8793 122.782 67.2132 122.6C67.3797 121.627 67.3587 119.772 67.1339 118.822L66.9528 118.07Z" fill="#646E96"/>
  <path d="M68.3878 100.561C68.6002 100.577 68.7982 100.563 68.9708 100.656L68.6579 100.857C68.6725 103.691 68.7052 106.578 68.6606 109.413C68.6474 110.252 68.1941 110.668 68.1681 111.59C68.4649 111.905 68.5644 111.954 68.6262 112.358L68.405 112.632C68.1456 112.445 68.0049 112.331 67.7672 112.118L67.5658 112.434C67.7822 113.455 68.8107 116.664 67.1232 117.127C67.0792 117.005 67.0315 116.85 67.0923 116.731C67.7192 115.495 67.0456 113.38 67.1964 112.621C67.5971 110.604 67.8793 109.301 68.0461 107.194C67.77 106.699 67.5489 106.32 67.6536 105.75C67.9335 104.225 67.891 102.002 68.3878 100.561Z" fill="#4E537E"/>
  <path d="M54.8824 2.49346C54.3638 2.46667 53.3473 2.51031 53.0732 1.91824C54.3213 0.523236 56.8818 3.79228 57.6515 4.00582C59.0022 3.54552 62.4894 3.01201 63.2587 4.59254C63.1067 4.98151 63.1043 4.99826 62.7989 5.27151L61.945 5.23944C61.1414 5.04711 60.8099 4.90153 60.1222 5.47904L60.1523 5.22204C59.8774 4.54653 59.9252 4.72676 59.2708 4.23177L57.1726 4.9156C56.3058 3.82069 55.9827 3.39863 54.8824 2.49346Z" fill="#131950"/>
  <path d="M59.2715 4.23161C61.3607 3.78141 61.0786 4.50512 62.7997 5.27135L61.9457 5.23928C61.1421 5.04695 60.8106 4.90137 60.1229 5.47888L60.153 5.22187C59.8781 4.54636 59.926 4.72659 59.2715 4.23161Z" fill="#F8F5F8"/>
  <path d="M62.9346 141.298L63.5772 141.602C63.9921 142.048 63.8411 142.724 63.9065 143.142C64.0329 143.949 65.7207 143.49 66.7926 144.215L66.8395 144.463C66.2945 144.551 65.0077 144.106 64.4042 143.935C63.3455 144.314 63.906 144.287 62.604 144.374C62.0984 144.203 61.4708 143.537 61.5405 142.993C61.9128 143.174 62.1313 143.399 62.4418 143.67L62.7054 143.627C62.9377 143.229 62.8947 141.896 62.9346 141.298Z" fill="#343E70"/>
  <path d="M63.5332 134.759C64.7852 136.807 64.6597 137.2 64.4913 139.581C64.5192 140.167 64.6328 140.686 64.3104 141.128L64.0309 141.095C63.6225 140.52 63.7599 140.343 63.7566 139.71C63.5952 139.105 63.5513 135.492 63.5332 134.759Z" fill="#4E537E"/>
  <path d="M63.757 139.71L64.2584 138.765L64.4917 139.581C64.5195 140.167 64.6332 140.686 64.3107 141.129L64.0312 141.096C63.6229 140.52 63.7602 140.344 63.757 139.71Z" fill="#343E70"/>
  <path d="M62.361 149.647C62.5292 148.359 62.7433 148.307 61.9551 147.251C62.1062 146.314 62.5073 146.727 62.7717 145.014L63.0158 144.886C63.6806 145.816 62.2345 146.301 63.7257 146.975C63.5427 148.232 63.075 147.547 63.1382 149.686L62.361 149.647Z" fill="#343E70"/>
  <path d="M71.7522 147.202C71.1667 147.169 65.2286 146.569 65.2002 146.554L65.4977 146.642L65.4923 146.439C68.428 145.998 69.8385 146.848 71.6009 146.676L71.7701 146.658L71.7522 147.202Z" fill="#343E70"/>
  <path d="M74.7145 121.925L74.8815 122.008L74.8748 122.254C73.9676 122.883 72.6987 123.255 71.6251 123.47L71.3662 123.372C71.6611 123.021 73.9826 122.251 74.7145 121.925Z" fill="#4E537E"/>
  <path d="M66.0908 141.033C67.1736 141.122 68.77 141.887 69.5976 142.593C68.4937 142.432 67.0441 141.598 66.0908 141.033Z" fill="#4E537E"/>
</svg>